<svg xmlns="http://www.w3.org/2000/svg" viewBox="0 0 24 24">
  <g fill="none">
    <path fill="#000" d="M10.2559851 1.90512174c.9545495-.99177523 2.5334803-.99177523 3.4880298 0 .5938388.61727779 1.465653.87525626 2.2964861.67962908 1.3345908-.31409463 2.6629959.54635319 2.9340122 1.9005453.1685636.84330122.7635623 1.53540055 1.5673324 1.82338558 1.2916767.46295834 1.9473737 1.91106708 1.4490285 3.19784185-.3104509.80121405-.1813218 1.70764595.3406068 2.38805445.8381788 1.0934858.6135561 2.6686353-.4964121 3.4799815-.6908789.5046557-1.068214 1.3374352-.9943708 2.1943757.1186905 1.3764048-.9155015 2.579395-2.2841144 2.6569444-.8517102.0479326-1.6160457.5432357-2.0134847 1.3043111-.6382994 1.222475-2.1534389 1.6710146-3.3465292.9902165-.7422985-.4235991-1.6508409-.4235991-2.3931394 0-1.19309027.6807981-2.70822981.2322585-3.34652921-.9902165-.397439-.7610754-1.16177451-1.2563785-2.01348473-1.3043111-1.3686129-.0775494-2.40280485-1.2805396-2.28411441-2.6569444.07384324-.8569405-.30349184-1.68972-.99437072-2.1943757-1.10996826-.8113462-1.33459088-2.3864957-.49641214-3.4799815.52192865-.6804085.65105766-1.5868404.34060677-2.38805445-.4983452-1.28677477.15735182-2.73488351 1.44902857-3.19784185.80377011-.28798503 1.39876877-.98008436 1.56733239-1.82338558.27101629-1.35419211 1.59942135-2.21463993 2.93401223-1.9005453.83083308.19562718 1.70264723-.06235129 2.29648605-.67962908Z"/>
    <path fill="#F7F8FD" d="m10.0828029 13.3216454.0011076.065132c.0194027.7698414.6463654 1.3904712 1.4240623 1.4096779l.0657967.0010964c.6113742.0275153.6113742.9357303 0 .9632456l-.0657982.0010963c-.7777273.0192041-1.4046591.6397486-1.4240609 1.4095563l-.0011075.0651305c-.0277961.6051987-.94527856.6051987-.97307468 0l-.00110749-.0651319c-.01939906-.7698378-.64624482-1.3903518-1.42393808-1.4095549l-.06579659-.0010963c-.61137419-.0275153-.61137419-.9357303 0-.9632456l.0657951-.0010964c.7776629-.0192058 1.40453952-.639805 1.42393955-1.4096764l.00110751-.0651335c.02779612-.6051987.94527858-.6051987.97307468 0Zm4.8103636-4.4726586.0003698.04519398c.0241333 1.47347452 1.2262462 2.66344482 2.7147561 2.68733432l.0456552.0003661c.649576 0 .649576.964522 0 .964522-1.5247571 0-2.7607811 1.223539-2.7607811 2.7328945 0 .6430146-.9743641.6430146-.9743641 0l-.0003699-.0451972c-.0238275-1.4547843-1.1958751-2.6332793-2.6580626-2.6860958l-.1311244-.002486c-.6207799-.0279386-.6112295-.9638838.0286514-.9638838l.0456578-.0003661c1.4696084-.0235817 2.6600303-1.1835406 2.7133812-2.63085129l.0025112-.12979268c.0282238-.61450945.9737194-.60505546.9737194.02836197Zm-7.27255907 2.021587.00433264.0814319c.00343592.0299541.01532448.0583618.03429405.0819458l.01222049.0135452c.03044595.0301327.07173839.0470569.11479135.0470488.64966937 0 .64976268.9643988.00018666.9645219-.08973525 1e-7-.16240439.0719352-.16240439.1606716-1e-8 .6215809-.91048908.6423002-.97118835.0621581l-.00421197-.0802899c-.00343592-.029954-.01532448-.0583618-.03429405-.0819457l-.01222049-.0135453c-.03044595-.0301327-.07173839-.0470569-.11479135-.0470488l-.02874477-.000638c-.59937636-.0269719-.61122576-.9003023-.03538764-.9606091l.08063444-.0041044c.08184634-.008228.1457157-.0766516.1457157-.159842l.00064469-.028362c.02725053-.5933194.90960346-.6049655.97042299-.0349381ZM11.054515 7.8866722l.0039336.08805315c.012657.24656914.2123902.44425957.461477.45675721l.0536573.00126202c.5993755.02690178.6111967.9004138.0353566.96062403l-.0936435.00416396c-.1183193.00716946-.2303861.05689881-.3147116.14039391-.0913527.09045303-.1426648.21312449-.1426483.34102806l-.0007041.02830595c-.0277343.60531811-.9451399.60537611-.9730117.00017916l-.0015544-.05783689c-.0066264-.10741787-.0493863-.20959753-.12143695-.29018705l-.02037125-.02143138c-.07832383-.07752279-.1805655-.1259216-.28955333-.13815745l-.08369024-.00370987c-.59937548-.02697298-.61119671-.90034004-.03535664-.96061298l.08907839-.00389841c.24025148-.01205536.43458422-.19639774.45942742-.43070467l.0033254-.07922924c.0271763-.59332118.9096017-.60502302.9704263-.03499951Z"/>
  </g>
</svg>
